# xmcd
#
# Track frame offsets:
# 182
# 18480
# 36630
# 48857
# 62800
# 75350
# 86750
# 100625
# 114737
# 134467
# 148647
# 164707
# 177527
# 195612
# 208990
# 221822
# 239137
# 251385
# 270082
# 287565
#
# Disc length: 4040 seconds
#
#
# Revision: 1
# Processed by: cddbd v1.4PL0 Copyright (c) Steve Scherf et al.
# Submitted via: FreeRIP 2.30 
#
DISCID=310fc614
DTITLE=Angeles negros - Disco de Oro 
DYEAR=1900
DGENRE=bolero
TTITLE0=Y Volvere
TTITLE1=Hablame
TTITLE2=Dejenme Si estoy Llorando
TTITLE3=Mi Nina
TTITLE4=Pasion y Vida
TTITLE5=El Reloj
TTITLE6=Debut y Despedida
TTITLE7=Vete en Silencio
TTITLE8=Si las Flores Pudieran Hablar
TTITLE9=Amar y Vivir
TTITLE10=Murio la Flor
TTITLE11=Corazon, Corazon
TTITLE12=A Ti
TTITLE13=Esta Noche La Paso Contigo
TTITLE14=Tanto a Dios
TTITLE15=Ayer Me Preguntaron Por Ti
TTITLE16=Como Quisiera Decirte
TTITLE17=Angelitos Negros
TTITLE18=Historia de Un Amor
TTITLE19=Serenata Sin Luna
EXTD=
EXTT0=
EXTT1=
EXTT2=
EXTT3=
EXTT4=
EXTT5=
EXTT6=
EXTT7=
EXTT8=
EXTT9=
EXTT10=
EXTT11=
EXTT12=
EXTT13=
EXTT14=
EXTT15=
EXTT16=
EXTT17=
EXTT18=
EXTT19=
PLAYORDER=
